<?xml version="1.0" encoding="UTF-8" standalone="no"?>
<!DOCTYPE svg PUBLIC "-//W3C//DTD SVG 1.1//EN" "http://www.w3.org/Graphics/SVG/1.1/DTD/svg11.dtd">
<svg width="100%" height="100%" viewBox="0 0 410 320" version="1.1" xmlns="http://www.w3.org/2000/svg" xmlns:xlink="http://www.w3.org/1999/xlink" xml:space="preserve" xmlns:serif="http://www.serif.com/" style="fill-rule:evenodd;clip-rule:evenodd;stroke-linejoin:round;stroke-miterlimit:2;">
    <path d="M320,310L350,310L350,320L320,320L320,310ZM120,310L120,320L90,320L90,310L120,310ZM80,300L90,300L90,310L80,310L80,300ZM300,300L320,300L320,310L300,310L300,300ZM350,300L370,300L370,310L350,310L350,300ZM120,300L140,300L140,310L120,310L120,300ZM140,280L150,280L150,300L140,300L140,280ZM370,280L380,280L380,300L370,300L370,280ZM320,280L330,280L330,300L320,300L320,280ZM90,280L100,280L100,300L90,300L90,280ZM380,200L390,200L390,280L380,280L380,200ZM150,220L160,220L160,280L150,280L150,220ZM330,250L340,250L340,280L330,280L330,250ZM100,150L120,150L120,160L140,160L140,200L120,200L120,210L110,210L110,280L100,280L100,150ZM320,230L330,230L330,250L320,250L320,230ZM300,220L320,220L320,230L300,230L300,220ZM160,210L300,210L300,220L160,220L160,210ZM370,130L380,130L380,200L370,200L370,130ZM90,120L100,120L100,150L90,150L90,120ZM380,110L390,110L390,130L380,130L380,110ZM10,110L90,110L90,120L10,120L10,110ZM390,100L400,100L400,110L390,110L390,100ZM0,80L10,80L10,110L0,110L0,80ZM320,130L300,130L300,150L240,150L240,130L220,130L220,120L210,120L210,110L170,110L170,100L340,100L340,110L320,110L320,130ZM340,80L350,80L350,100L340,100L340,80ZM140,70L150,70L150,80L170,80L170,100L150,100L150,80L140,80L140,70ZM390,20L400,20L400,30L410,30L410,100L400,100L400,50L390,50L390,20ZM10,70L30,70L30,80L10,80L10,70ZM370,70L370,80L350,80L350,70L370,70ZM30,60L40,60L40,70L30,70L30,60ZM370,60L380,60L380,70L370,70L370,60ZM110,20L110,10L120,10L120,0L150,0L150,30L140,30L140,70L120,70L120,30L140,30L140,10L120,10L120,20L110,20ZM80,50L90,50L90,60L80,60L80,50ZM40,50L50,50L50,60L40,60L40,50ZM380,50L390,50L390,60L380,60L380,50ZM50,10L60,10L60,50L50,50L50,10ZM80,10L90,10L90,20L110,20L110,30L80,30L80,10ZM60,0L80,0L80,10L60,10L60,0Z" style="fill:white;"/>
</svg>
