<?xml version="1.0" encoding="utf-8"?>
<!-- Generator: Adobe Illustrator 22.0.1, SVG Export Plug-In . SVG Version: 6.00 Build 0)  -->
<svg version="1.1" id="Layer_1" xmlns="http://www.w3.org/2000/svg" xmlns:xlink="http://www.w3.org/1999/xlink" x="0px" y="0px"
	 viewBox="0 0 13.1 47.5" style="enable-background:new 0 0 13.1 47.5;" xml:space="preserve">
<style type="text/css">
	.st0{fill:#FFFFFF;}
</style>
<path class="st0" d="M12.5,47.5c-2.5-0.8-4.3-2.1-5.6-3.9C5.7,41.8,5,39.4,5,36.5v-5.2C5.1,27.1,3.4,25,0,25v-2.5
	c3.4,0,5.1-2.1,5.1-6.2v-5.4c0-2.9,0.6-5.2,1.9-7c1.2-1.8,3-3.1,5.5-3.9l0.6,1.9c-3.6,1.2-5.4,4.3-5.4,9.3v5.1c0,3.9-1.3,6.4-4,7.6
	c2.7,1.2,4,3.7,4,7.5v5.4c0.1,4.6,1.9,7.6,5.4,8.9C13.1,45.7,12.5,47.5,12.5,47.5z"/>
</svg>
