<?xml version="1.0" encoding="utf-8"?>
<!-- Generator: Adobe Illustrator 22.0.1, SVG Export Plug-In . SVG Version: 6.00 Build 0)  -->
<svg version="1.1" id="Layer_1" xmlns="http://www.w3.org/2000/svg" xmlns:xlink="http://www.w3.org/1999/xlink" x="0px" y="0px"
	 viewBox="0 0 13.1 47.5" style="enable-background:new 0 0 13.1 47.5;" xml:space="preserve">
<style type="text/css">
	.st0{fill:#FFFFFF;}
</style>
<path class="st0" d="M0.6,0c2.5,0.8,4.3,2.1,5.6,3.9C7.4,5.7,8.1,8.1,8.1,11v5.2c-0.1,4.2,1.6,6.3,5,6.3V25C9.7,25,8,27.1,8,31.2
	v5.4c0,2.9-0.6,5.2-1.9,7c-1.2,1.8-3,3.1-5.5,3.9L0,45.6c3.6-1.2,5.4-4.3,5.4-9.3v-5.1c0-3.9,1.3-6.4,4-7.6c-2.7-1.2-4-3.7-4-7.5
	v-5.4C5.3,6.1,3.5,3.1,0,1.8C0,1.8,0.6,0,0.6,0z"/>
</svg>
